<svg xmlns="http://www.w3.org/2000/svg" fill="none" viewBox="96 96 192 192">

<mask id="mask0_11_105" style="mask-type:alpha" maskUnits="userSpaceOnUse" x="96" y="96" width="192" height="192">
<path fill-rule="evenodd" clip-rule="evenodd" d="M108.075 96H248.152C259.156 96 268.548 99.8302 276.329 107.491C284.11 115.151 288 124.398 288 135.231V276.111C288 279.394 286.821 282.197 284.463 284.518C282.105 286.839 279.259 288 275.925 288C272.59 288 269.744 286.839 267.386 284.518C265.028 282.197 263.849 279.394 263.849 276.111V135.231C263.849 130.963 262.317 127.321 259.252 124.303C256.187 121.286 252.487 119.777 248.152 119.777H108.075C104.741 119.777 101.895 118.616 99.5369 116.295C97.179 113.974 96 111.171 96 107.889C96 104.606 97.179 101.803 99.5369 99.482C101.895 97.1607 104.741 96 108.075 96ZM179.322 145.338H179.32C175.985 145.338 173.14 146.498 170.782 148.819C168.424 151.141 167.245 153.942 167.245 157.225V188.138C167.245 191.42 168.424 194.222 170.782 196.543C173.14 198.864 175.985 200.025 179.32 200.025H179.322C182.656 200.025 185.502 198.864 187.86 196.543C190.218 194.222 191.396 191.42 191.396 188.138V157.225C191.396 153.942 190.218 151.141 187.86 148.819C185.502 146.498 182.656 145.338 179.322 145.338ZM225.209 145.338H225.206C221.872 145.338 219.026 146.498 216.669 148.819C214.311 151.141 213.132 153.942 213.132 157.225V188.138C213.132 191.42 214.311 194.222 216.669 196.543C219.026 198.864 221.872 200.025 225.206 200.025H225.209C228.543 200.025 231.389 198.864 233.747 196.543C236.104 194.222 237.283 191.42 237.283 188.138V157.225C237.283 153.942 236.104 151.141 233.747 148.819C231.389 146.498 228.543 145.338 225.209 145.338ZM135.848 288H180.528C183.863 288 186.709 286.839 189.067 284.518C191.425 282.196 192.604 279.394 192.604 276.111C192.604 272.828 191.425 270.026 189.067 267.705C186.709 265.383 183.863 264.223 180.528 264.223H135.848C131.513 264.223 127.814 262.714 124.749 259.696C121.683 256.679 120.151 253.036 120.151 248.769V200.619C120.151 197.336 118.972 194.534 116.614 192.212C114.256 189.891 111.41 188.73 108.075 188.73C104.741 188.73 101.895 189.891 99.5369 192.212C97.179 194.534 96 197.336 96 200.619V248.769C96 259.602 99.8904 268.849 107.671 276.509C115.452 284.17 124.844 288 135.848 288ZM213.132 276.111C213.132 269.545 218.538 264.223 225.208 264.223C231.877 264.223 237.283 269.545 237.283 276.111C237.283 282.677 231.877 288 225.208 288C218.538 288 213.132 282.677 213.132 276.111Z" fill="#323232"/>
</mask>
<g mask="url(#mask0_11_105)">
<rect width="384" height="384" fill="#323232"/>
<path fill-rule="evenodd" clip-rule="evenodd" d="M0 190.823V342.152H384V190.004C365.174 189.118 349.498 185.115 338.461 181.545C303.104 170.11 226.461 158.985 179.396 190.823C89.8766 251.38 36.9231 222.278 0 190.823Z" fill="url(#paint0_linear_11_105)"/>
<path fill-rule="evenodd" clip-rule="evenodd" d="M384 283.242V384.452H0V227.858C46.4882 189.247 127.731 128.035 223.77 207.025C300.016 269.737 351.27 286.523 384 283.242Z" fill="url(#paint1_linear_11_105)"/>
</g>
<defs>
<linearGradient id="paint0_linear_11_105" x1="192" y1="169.949" x2="229.038" y2="365.778" gradientUnits="userSpaceOnUse">
<stop stop-color="#0EE0F1"/>
<stop offset="1" stop-color="#6A99DD"/>
</linearGradient>
<linearGradient id="paint1_linear_11_105" x1="383.278" y1="145.339" x2="-26.9548" y2="163.952" gradientUnits="userSpaceOnUse">
<stop stop-color="#C253C3"/>
<stop offset="1" stop-color="#EE1260"/>
</linearGradient>
</defs>
</svg>