<svg xmlns="http://www.w3.org/2000/svg" width="47" height="47" fill="none" viewBox="0 0 47 47"><g id="Colorful Icon"><g id="Background" filter="url(#filter0_b_0_916)"><rect width="46.899" height="46.877" x=".101" y=".123" fill="url(#paint0_linear_0_916)" rx="13"/></g><g id="Colorful Icon_2"><g id="Vignette Icon"><g id="icon"><mask id="mask0_0_916" width="25" height="25" x="11" y="11" maskUnits="userSpaceOnUse" style="mask-type:alpha"><path id="Shape" fill="#fff" fill-rule="evenodd" d="M12.9902 11.4868H30.6165C32.0012 11.4868 33.183 11.9685 34.1621 12.9321C35.1412 13.8955 35.6307 15.0586 35.6307 16.4211V34.1404C35.6307 34.5533 35.4824 34.9058 35.1857 35.1978C34.889 35.4898 34.5308 35.6357 34.1112 35.6357C33.6916 35.6357 33.3335 35.4898 33.0368 35.1978C32.7401 34.9058 32.5918 34.5533 32.5917 34.1404V16.4211C32.5917 15.8844 32.3989 15.4262 32.0132 15.0467C31.6275 14.6672 31.162 14.4774 30.6165 14.4774H12.9902C12.5706 14.4774 12.2125 14.3314 11.9158 14.0394C11.6191 13.7474 11.4707 13.395 11.4707 12.9821C11.4707 12.5692 11.6191 12.2168 11.9158 11.9248C12.2125 11.6328 12.5706 11.4868 12.9902 11.4868V11.4868ZM21.9554 17.6923H21.9551C21.5355 17.6923 21.1774 17.8382 20.8808 18.1302C20.5841 18.4221 20.4358 18.7746 20.4358 19.1874V23.0755C20.4358 23.4884 20.5841 23.8407 20.8808 24.1327C21.1774 24.4246 21.5355 24.5706 21.9551 24.5706H21.9554C22.375 24.5706 22.7331 24.4246 23.0298 24.1327C23.3264 23.8407 23.4748 23.4884 23.4748 23.0755V19.1874C23.4748 18.7746 23.3264 18.4221 23.0298 18.1302C22.7331 17.8382 22.375 17.6923 21.9554 17.6923V17.6923ZM27.7295 17.6923H27.7292C27.3096 17.6923 26.9515 17.8382 26.6548 18.1302C26.3581 18.4221 26.2098 18.7746 26.2098 19.1874V23.0755C26.2098 23.4884 26.3581 23.8407 26.6548 24.1327C26.9515 24.4246 27.3096 24.5706 27.7292 24.5706H27.7295C28.149 24.5706 28.5072 24.4246 28.8038 24.1327C29.1005 23.8407 29.2488 23.4884 29.2488 23.0755V19.1874C29.2488 18.7746 29.1005 18.4221 28.8038 18.1302C28.5072 17.8382 28.149 17.6923 27.7295 17.6923V17.6923ZM16.4849 35.6357H22.1072C22.5268 35.6357 22.8849 35.4897 23.1816 35.1977C23.4783 34.9057 23.6267 34.5533 23.6267 34.1404C23.6267 33.7275 23.4783 33.375 23.1816 33.083C22.8849 32.7911 22.5268 32.6451 22.1072 32.6451H16.4849C15.9395 32.6451 15.4739 32.4554 15.0882 32.0758C14.7025 31.6963 14.5097 31.2381 14.5097 30.7014V24.6453C14.5097 24.2324 14.3613 23.8799 14.0646 23.588C13.768 23.296 13.4098 23.15 12.9902 23.15C12.5706 23.15 12.2125 23.296 11.9158 23.588C11.6191 23.8799 11.4707 24.2324 11.4707 24.6453V30.7014C11.4707 32.0639 11.9603 33.227 12.9394 34.1904C13.9184 35.1539 15.1003 35.6357 16.4849 35.6357V35.6357ZM26.2098 34.1404C26.2098 33.3146 26.8901 32.6451 27.7293 32.6451C28.5685 32.6451 29.2488 33.3146 29.2488 34.1404C29.2488 34.9663 28.5685 35.6357 27.7293 35.6357C26.8901 35.6357 26.2098 34.9663 26.2098 34.1404V34.1404Z" clip-rule="evenodd"/></mask><g mask="url(#mask0_0_916)"><g id="Pattern"><rect id="Rectangle" width="48.32" height="48.298" x="5.225" y="3.376" fill="#323232"/><g id="Blues" filter="url(#filter1_d_0_916)"><ellipse id="Ellipse 5" cx="30.093" cy="29.004" fill="url(#paint1_linear_0_916)" rx="5.595" ry="5.592"/><ellipse id="Ellipse 12" cx="13.618" cy="26.125" fill="url(#paint2_linear_0_916)" rx="5.595" ry="5.592"/><ellipse id="Ellipse 13" cx="22.692" cy="27.472" fill="url(#paint3_linear_0_916)" rx="5.595" ry="5.592"/><ellipse id="Ellipse 16" cx="17.142" cy="39.995" fill="url(#paint4_linear_0_916)" rx="5.595" ry="5.592"/><ellipse id="Ellipse 17" cx="15.468" cy="34.341" fill="url(#paint5_linear_0_916)" rx="5.595" ry="5.592"/><ellipse id="Ellipse 7" cx="35.732" cy="33.786" fill="url(#paint6_linear_0_916)" rx="5.595" ry="5.592"/><ellipse id="Ellipse 9" cx="28.101" cy="38.651" fill="url(#paint7_linear_0_916)" rx="5.595" ry="5.592"/><ellipse id="Ellipse 18" fill="url(#paint8_linear_0_916)" rx="5.592" ry="5.594" transform="matrix(0.139236 -0.990259 0.990277 0.13911 23.406 36.4359)"/></g><g id="Reds" filter="url(#filter2_d_0_916)"><ellipse id="Ellipse 14" fill="url(#paint9_linear_0_916)" rx="7.069" ry="7.067" transform="matrix(0.945565 0.325434 -0.325702 0.945472 37.7349 13.366)"/><ellipse id="Ellipse 4" fill="url(#paint10_linear_0_916)" rx="7.069" ry="7.067" transform="matrix(0.945565 0.325434 -0.325702 0.945472 31.895 18.2859)"/><ellipse id="Ellipse 15" fill="url(#paint11_linear_0_916)" rx="7.069" ry="7.067" transform="matrix(0.945565 0.325434 -0.325702 0.945472 28.0906 7.2786)"/><ellipse id="Ellipse 8" fill="url(#paint12_linear_0_916)" rx="7.069" ry="7.067" transform="matrix(0.945565 0.325434 -0.325702 0.945472 21.7212 17.0827)"/><ellipse id="Ellipse 11" fill="url(#paint13_linear_0_916)" rx="7.069" ry="7.067" transform="matrix(0.945565 0.325434 -0.325702 0.945472 26.5474 23.9757)"/><g id="Ellipse 19" filter="url(#filter3_d_0_916)"><ellipse fill="url(#paint14_linear_0_916)" rx="7.069" ry="7.067" transform="matrix(0.945565 0.325434 -0.325702 0.945472 39.7483 23.2952)"/></g></g></g></g></g></g></g></g><defs><filter id="filter0_b_0_916" width="179.181" height="179.16" x="-66.04" y="-66.019" color-interpolation-filters="sRGB" filterUnits="userSpaceOnUse"><feFlood flood-opacity="0" result="BackgroundImageFix"/><feGaussianBlur in="BackgroundImage" stdDeviation="33.071"/><feComposite in2="SourceAlpha" operator="in" result="effect1_backgroundBlur_0_916"/><feBlend in="SourceGraphic" in2="effect1_backgroundBlur_0_916" mode="normal" result="shape"/></filter><filter id="filter1_d_0_916" width="41.303" height="33.054" x="4.023" y="18.532" color-interpolation-filters="sRGB" filterUnits="userSpaceOnUse"><feFlood flood-opacity="0" result="BackgroundImageFix"/><feColorMatrix in="SourceAlpha" result="hardAlpha" type="matrix" values="0 0 0 0 0 0 0 0 0 0 0 0 0 0 0 0 0 0 127 0"/><feOffset dy="2"/><feGaussianBlur stdDeviation="2"/><feColorMatrix type="matrix" values="0 0 0 0 0.392157 0 0 0 0 0.392157 0 0 0 0 0.392157 0 0 0 0.498039 0"/><feBlend in2="BackgroundImageFix" mode="normal" result="effect1_dropShadow_0_916"/><feBlend in="SourceGraphic" in2="effect1_dropShadow_0_916" mode="normal" result="shape"/></filter><filter id="filter2_d_0_916" width="50.47" height="38.834" x="10.65" y="-1.79" color-interpolation-filters="sRGB" filterUnits="userSpaceOnUse"><feFlood flood-opacity="0" result="BackgroundImageFix"/><feColorMatrix in="SourceAlpha" result="hardAlpha" type="matrix" values="0 0 0 0 0 0 0 0 0 0 0 0 0 0 0 0 0 0 127 0"/><feOffset dy="2"/><feGaussianBlur stdDeviation="2"/><feColorMatrix type="matrix" values="0 0 0 0 0.392157 0 0 0 0 0.392157 0 0 0 0 0.392157 0 0 0 0.498039 0"/><feBlend in2="BackgroundImageFix" mode="normal" result="effect1_dropShadow_0_916"/><feBlend in="SourceGraphic" in2="effect1_dropShadow_0_916" mode="normal" result="shape"/></filter><filter id="filter3_d_0_916" width="22.143" height="22.137" x="28.677" y="14.227" color-interpolation-filters="sRGB" filterUnits="userSpaceOnUse"><feFlood flood-opacity="0" result="BackgroundImageFix"/><feColorMatrix in="SourceAlpha" result="hardAlpha" type="matrix" values="0 0 0 0 0 0 0 0 0 0 0 0 0 0 0 0 0 0 127 0"/><feOffset dy="2"/><feGaussianBlur stdDeviation="2"/><feColorMatrix type="matrix" values="0 0 0 0 0.392157 0 0 0 0 0.392157 0 0 0 0 0.392157 0 0 0 0.498039 0"/><feBlend in2="BackgroundImageFix" mode="normal" result="effect1_dropShadow_0_916"/><feBlend in="SourceGraphic" in2="effect1_dropShadow_0_916" mode="normal" result="shape"/></filter><linearGradient id="paint0_linear_0_916" x1=".101" x2=".101" y1=".123" y2="47" gradientUnits="userSpaceOnUse"><stop stop-color="#FFFBFB"/><stop offset="1" stop-color="#F4F4F4"/></linearGradient><linearGradient id="paint1_linear_0_916" x1="39.611" x2="29.034" y1="26.201" y2="20.649" gradientUnits="userSpaceOnUse"><stop stop-color="#005BEA"/><stop offset="1" stop-color="#00C6FB"/></linearGradient><linearGradient id="paint2_linear_0_916" x1="23.135" x2="12.559" y1="23.321" y2="17.77" gradientUnits="userSpaceOnUse"><stop stop-color="#005BEA"/><stop offset="1" stop-color="#00C6FB"/></linearGradient><linearGradient id="paint3_linear_0_916" x1="32.21" x2="21.633" y1="24.668" y2="19.117" gradientUnits="userSpaceOnUse"><stop stop-color="#005BEA"/><stop offset="1" stop-color="#00C6FB"/></linearGradient><linearGradient id="paint4_linear_0_916" x1="26.659" x2="16.083" y1="37.191" y2="31.64" gradientUnits="userSpaceOnUse"><stop stop-color="#005BEA"/><stop offset="1" stop-color="#00C6FB"/></linearGradient><linearGradient id="paint5_linear_0_916" x1="24.985" x2="14.409" y1="31.538" y2="25.986" gradientUnits="userSpaceOnUse"><stop stop-color="#005BEA"/><stop offset="1" stop-color="#00C6FB"/></linearGradient><linearGradient id="paint6_linear_0_916" x1="45.249" x2="34.673" y1="30.983" y2="25.431" gradientUnits="userSpaceOnUse"><stop stop-color="#005BEA"/><stop offset="1" stop-color="#00C6FB"/></linearGradient><linearGradient id="paint7_linear_0_916" x1="37.618" x2="27.042" y1="35.847" y2="30.296" gradientUnits="userSpaceOnUse"><stop stop-color="#005BEA"/><stop offset="1" stop-color="#00C6FB"/></linearGradient><linearGradient id="paint8_linear_0_916" x1="15.105" x2="4.529" y1="2.79" y2="-2.756" gradientUnits="userSpaceOnUse"><stop stop-color="#005BEA"/><stop offset="1" stop-color="#00C6FB"/></linearGradient><linearGradient id="paint9_linear_0_916" x1="8.559" x2="-4.95" y1="-2.927" y2="11.887" gradientUnits="userSpaceOnUse"><stop stop-color="#A445B2"/><stop offset=".5" stop-color="#D41872"/><stop offset="1" stop-color="#F06"/></linearGradient><linearGradient id="paint10_linear_0_916" x1="8.559" x2="-4.95" y1="-2.927" y2="11.887" gradientUnits="userSpaceOnUse"><stop stop-color="#A445B2"/><stop offset=".5" stop-color="#D41872"/><stop offset="1" stop-color="#F06"/></linearGradient><linearGradient id="paint11_linear_0_916" x1="8.559" x2="-4.95" y1="-2.927" y2="11.887" gradientUnits="userSpaceOnUse"><stop stop-color="#A445B2"/><stop offset=".5" stop-color="#D41872"/><stop offset="1" stop-color="#F06"/></linearGradient><linearGradient id="paint12_linear_0_916" x1="8.559" x2="-4.95" y1="-2.927" y2="11.887" gradientUnits="userSpaceOnUse"><stop stop-color="#A445B2"/><stop offset=".5" stop-color="#D41872"/><stop offset="1" stop-color="#F06"/></linearGradient><linearGradient id="paint13_linear_0_916" x1="8.559" x2="-4.95" y1="-2.927" y2="11.887" gradientUnits="userSpaceOnUse"><stop stop-color="#F06"/><stop offset=".5" stop-color="#D41872"/><stop offset="1" stop-color="#A445B2"/></linearGradient><linearGradient id="paint14_linear_0_916" x1="4.1" x2="4.198" y1="2.996" y2="12.256" gradientUnits="userSpaceOnUse"><stop stop-color="#A445B2"/><stop offset=".5" stop-color="#D41872"/><stop offset="1" stop-color="#F06"/></linearGradient></defs></svg>