<svg xmlns="http://www.w3.org/2000/svg" width="433" height="104" fill="none" viewBox="0 0 433 104"><path fill="#F5F5F5" fill-rule="evenodd" d="M6.22463 1H78.4308C84.103 1 88.9444 3.00542 92.9554 7.01623C96.9661 11.027 98.9715 15.8685 98.9715 21.5406V95.303C98.9715 97.022 98.3639 98.4891 97.1484 99.7045C95.933 100.92 94.4657 101.528 92.7469 101.528C91.0281 101.528 89.5608 100.92 88.3454 99.7045C87.13 98.4891 86.5223 97.022 86.5223 95.303V21.5406C86.5223 19.3062 85.7323 17.3991 84.1523 15.8192C82.5725 14.2392 80.6652 13.4492 78.4308 13.4492H6.22463C4.50575 13.4492 3.03858 12.8415 1.82317 11.6261C0.60772 10.4106 0 8.9435 0 7.22462C0 5.50576 0.60772 4.03857 1.82317 2.82313C3.03858 1.60772 4.50575 1 6.22463 1ZM42.9506 26.8323H42.9493C41.2306 26.8323 39.7637 27.44 38.5484 28.6554C37.333 29.8706 36.7254 31.3376 36.7254 33.0564V49.2417C36.7254 50.9603 37.333 52.4272 38.5484 53.6427C39.7637 54.8579 41.2306 55.4655 42.9493 55.4655H42.9506C44.6693 55.4655 46.1364 54.8579 47.3517 53.6427C48.5669 52.4272 49.1747 50.9603 49.1745 49.2417V33.0564C49.1747 31.3376 48.5669 29.8706 47.3517 28.6554C46.1364 27.44 44.6693 26.8323 42.9506 26.8323ZM66.6042 26.8323H66.6028C64.8842 26.8323 63.4171 27.44 62.2018 28.6554C60.9866 29.8706 60.3789 31.3376 60.3789 33.0564V49.2417C60.3789 50.9603 60.9866 52.4272 62.2018 53.6427C63.4171 54.8579 64.8842 55.4655 66.6028 55.4655H66.6042C68.3228 55.4655 69.7898 54.8579 71.0052 53.6427C72.2205 52.4272 72.8281 50.9603 72.8281 49.2417V33.0564C72.8281 31.3376 72.2205 29.8706 71.0052 28.6554C69.7898 27.44 68.3228 26.8323 66.6042 26.8323ZM20.5406 101.528H43.5723C45.2913 101.528 46.7584 100.92 47.9739 99.7044C49.1893 98.4889 49.7971 97.0218 49.7969 95.3028C49.7971 93.584 49.1893 92.1167 47.9739 90.9013C46.7584 89.6859 45.2913 89.0783 43.5723 89.0783H20.5406C18.3062 89.0783 16.3991 88.2883 14.8192 86.7084C13.2392 85.1284 12.4493 83.2211 12.4493 80.9869V55.7766C12.4493 54.0576 11.8416 52.5905 10.6261 51.375C9.41071 50.1596 7.94354 49.552 6.22463 49.552C4.50575 49.552 3.03858 50.1596 1.82317 51.375C0.60772 52.5905 0 54.0576 0 55.7766V80.9869C0 86.6589 2.00541 91.5005 6.01627 95.5113C10.0271 99.522 14.8685 101.527 20.5406 101.528ZM60.3789 95.3028C60.3789 91.8652 63.1657 89.0783 66.6035 89.0783C70.0413 89.0783 72.8281 91.8652 72.8281 95.3028C72.8281 98.7406 70.0413 101.528 66.6035 101.528C63.1657 101.528 60.3789 98.7406 60.3789 95.3028Z" clip-rule="evenodd"/><path fill="#DBDBDB" d="M120.722 79.5455V97H123.756V84.983H123.918L128.741 96.9489H131.009L135.832 85.0085H135.994V97H139.028V79.5455H135.159L129.977 92.1932H129.773L124.591 79.5455H120.722ZM144.102 97.2642C146.156 97.2642 147.384 96.3011 147.946 95.2017H148.048V97H151.014V88.2386C151.014 84.7784 148.193 83.7386 145.696 83.7386C142.943 83.7386 140.83 84.9659 140.148 87.3523L143.028 87.7614C143.335 86.8665 144.205 86.0994 145.713 86.0994C147.145 86.0994 147.929 86.8324 147.929 88.1193V88.1705C147.929 89.0568 147 89.0994 144.69 89.3466C142.151 89.6193 139.722 90.3778 139.722 93.3267C139.722 95.9006 141.605 97.2642 144.102 97.2642ZM144.903 94.9972C143.616 94.9972 142.696 94.4091 142.696 93.2756C142.696 92.0909 143.727 91.5966 145.108 91.4006C145.918 91.2898 147.537 91.0852 147.938 90.7614V92.304C147.938 93.7614 146.761 94.9972 144.903 94.9972ZM152.116 97H155.202V92.6023L156.327 91.4006L160.332 97H164.023L158.653 89.5597L163.724 83.9091H160.119L155.415 89.1676H155.202V79.5455H152.116V97ZM169.037 97.2557C172.088 97.2557 174.185 95.7642 174.73 93.4886L171.849 93.1648C171.432 94.2727 170.409 94.8523 169.08 94.8523C167.085 94.8523 165.764 93.5398 165.739 91.2983H174.858V90.3523C174.858 85.7585 172.097 83.7386 168.875 83.7386C165.125 83.7386 162.679 86.4915 162.679 90.5312C162.679 94.6392 165.091 97.2557 169.037 97.2557ZM165.747 89.2188C165.841 87.5483 167.077 86.142 168.918 86.142C170.69 86.142 171.884 87.4375 171.901 89.2188H165.747ZM181.339 101.909C183.742 101.909 185.131 100.673 185.873 98.5852L191.131 83.9261L187.833 83.9091L184.808 93.7955H184.671L181.654 83.9091H178.381L183.129 97.2727L182.864 97.9801C182.293 99.4716 181.39 99.5739 180.043 99.1818L179.327 101.585C179.745 101.756 180.495 101.909 181.339 101.909ZM196.538 97.2557C200.373 97.2557 202.81 94.554 202.81 90.5057C202.81 86.4489 200.373 83.7386 196.538 83.7386C192.702 83.7386 190.265 86.4489 190.265 90.5057C190.265 94.554 192.702 97.2557 196.538 97.2557ZM196.555 94.7841C194.433 94.7841 193.393 92.892 193.393 90.4972C193.393 88.1023 194.433 86.1847 196.555 86.1847C198.643 86.1847 199.683 88.1023 199.683 90.4972C199.683 92.892 198.643 94.7841 196.555 94.7841ZM211.773 91.4943C211.773 93.4886 210.349 94.4773 208.986 94.4773C207.503 94.4773 206.514 93.429 206.514 91.767V83.9091H203.429V92.2443C203.429 95.3892 205.219 97.1705 207.793 97.1705C209.753 97.1705 211.134 96.1392 211.73 94.6733H211.866V97H214.858V83.9091H211.773V91.4943ZM216.031 97H219.116V89.304C219.116 87.642 220.369 86.4659 222.065 86.4659C222.585 86.4659 223.232 86.5597 223.496 86.6449V83.8068C223.215 83.7557 222.729 83.7216 222.388 83.7216C220.888 83.7216 219.636 84.5739 219.158 86.0909H219.022V83.9091H216.031V97ZM237.846 87.3693C237.42 85.1534 235.647 83.7386 232.579 83.7386C229.425 83.7386 227.278 85.2898 227.286 87.7102C227.278 89.6193 228.454 90.8807 230.968 91.4006L233.201 91.8693C234.403 92.1335 234.965 92.6193 234.965 93.3608C234.965 94.2557 233.994 94.929 232.528 94.929C231.113 94.929 230.192 94.3153 229.928 93.1392L226.92 93.429C227.303 95.8324 229.323 97.2557 232.536 97.2557C235.809 97.2557 238.119 95.5597 238.127 93.0795C238.119 91.2131 236.917 90.071 234.445 89.5341L232.212 89.0568C230.883 88.7585 230.354 88.2983 230.363 87.5398C230.354 86.6534 231.335 86.0398 232.621 86.0398C234.045 86.0398 234.795 86.8153 235.033 87.6761L237.846 87.3693ZM245.208 83.9091H242.626V80.7727H239.54V83.9091H237.683V86.2955H239.54V93.5739C239.523 96.0369 241.313 97.2472 243.631 97.179C244.509 97.1534 245.114 96.983 245.447 96.8722L244.927 94.4602C244.756 94.5028 244.407 94.5795 244.023 94.5795C243.248 94.5795 242.626 94.3068 242.626 93.0625V86.2955H245.208V83.9091ZM245.788 97H248.874V89.304C248.874 87.642 250.126 86.4659 251.822 86.4659C252.342 86.4659 252.99 86.5597 253.254 86.6449V83.8068C252.973 83.7557 252.487 83.7216 252.146 83.7216C250.646 83.7216 249.393 84.5739 248.916 86.0909H248.78V83.9091H245.788V97ZM258.56 97.2557C261.612 97.2557 263.708 95.7642 264.254 93.4886L261.373 93.1648C260.955 94.2727 259.933 94.8523 258.603 94.8523C256.609 94.8523 255.288 93.5398 255.262 91.2983H264.381V90.3523C264.381 85.7585 261.62 83.7386 258.398 83.7386C254.648 83.7386 252.202 86.4915 252.202 90.5312C252.202 94.6392 254.614 97.2557 258.56 97.2557ZM255.271 89.2188C255.364 87.5483 256.6 86.142 258.441 86.142C260.214 86.142 261.407 87.4375 261.424 89.2188H255.271ZM268.759 97.2642C270.812 97.2642 272.04 96.3011 272.602 95.2017H272.705V97H275.67V88.2386C275.67 84.7784 272.849 83.7386 270.352 83.7386C267.599 83.7386 265.486 84.9659 264.804 87.3523L267.685 87.7614C267.991 86.8665 268.861 86.0994 270.369 86.0994C271.801 86.0994 272.585 86.8324 272.585 88.1193V88.1705C272.585 89.0568 271.656 89.0994 269.347 89.3466C266.807 89.6193 264.378 90.3778 264.378 93.3267C264.378 95.9006 266.261 97.2642 268.759 97.2642ZM269.56 94.9972C268.273 94.9972 267.352 94.4091 267.352 93.2756C267.352 92.0909 268.384 91.5966 269.764 91.4006C270.574 91.2898 272.193 91.0852 272.594 90.7614V92.304C272.594 93.7614 271.418 94.9972 269.56 94.9972ZM276.773 97H279.858V89.0398C279.858 87.429 280.932 86.3381 282.261 86.3381C283.565 86.3381 284.46 87.2159 284.46 88.5625V97H287.486V88.8352C287.486 87.3608 288.364 86.3381 289.855 86.3381C291.099 86.3381 292.088 87.071 292.088 88.6903V97H295.182V88.2131C295.182 85.2898 293.494 83.7386 291.091 83.7386C289.19 83.7386 287.741 84.6761 287.162 86.1335H287.026C286.523 84.6506 285.253 83.7386 283.489 83.7386C281.733 83.7386 280.42 84.642 279.875 86.1335H279.722V83.9091H276.773V97ZM306.658 87.3693C306.232 85.1534 304.46 83.7386 301.391 83.7386C298.238 83.7386 296.09 85.2898 296.099 87.7102C296.09 89.6193 297.266 90.8807 299.781 91.4006L302.013 91.8693C303.215 92.1335 303.778 92.6193 303.778 93.3608C303.778 94.2557 302.806 94.929 301.34 94.929C299.925 94.929 299.005 94.3153 298.741 93.1392L295.732 93.429C296.116 95.8324 298.136 97.2557 301.349 97.2557C304.621 97.2557 306.931 95.5597 306.94 93.0795C306.931 91.2131 305.729 90.071 303.258 89.5341L301.025 89.0568C299.695 88.7585 299.167 88.2983 299.175 87.5398C299.167 86.6534 300.147 86.0398 301.434 86.0398C302.857 86.0398 303.607 86.8153 303.846 87.6761L306.658 87.3693ZM311.437 97H314.522V89.0398C314.522 87.429 315.596 86.3381 316.925 86.3381C318.229 86.3381 319.124 87.2159 319.124 88.5625V97H322.15V88.8352C322.15 87.3608 323.028 86.3381 324.519 86.3381C325.763 86.3381 326.752 87.071 326.752 88.6903V97H329.846V88.2131C329.846 85.2898 328.158 83.7386 325.755 83.7386C323.854 83.7386 322.406 84.6761 321.826 86.1335H321.69C321.187 84.6506 319.917 83.7386 318.153 83.7386C316.397 83.7386 315.085 84.642 314.539 86.1335H314.386V83.9091H311.437V97ZM336.686 97.2557C340.521 97.2557 342.959 94.554 342.959 90.5057C342.959 86.4489 340.521 83.7386 336.686 83.7386C332.851 83.7386 330.413 86.4489 330.413 90.5057C330.413 94.554 332.851 97.2557 336.686 97.2557ZM336.703 94.7841C334.581 94.7841 333.541 92.892 333.541 90.4972C333.541 88.1023 334.581 86.1847 336.703 86.1847C338.791 86.1847 339.831 88.1023 339.831 90.4972C339.831 92.892 338.791 94.7841 336.703 94.7841ZM343.577 97H346.663V89.304C346.663 87.642 347.915 86.4659 349.612 86.4659C350.131 86.4659 350.779 86.5597 351.043 86.6449V83.8068C350.762 83.7557 350.276 83.7216 349.935 83.7216C348.435 83.7216 347.183 84.5739 346.705 86.0909H346.569V83.9091H343.577V97ZM356.349 97.2557C359.401 97.2557 361.497 95.7642 362.043 93.4886L359.162 93.1648C358.744 94.2727 357.722 94.8523 356.392 94.8523C354.398 94.8523 353.077 93.5398 353.051 91.2983H362.17V90.3523C362.17 85.7585 359.409 83.7386 356.188 83.7386C352.438 83.7386 349.991 86.4915 349.991 90.5312C349.991 94.6392 352.403 97.2557 356.349 97.2557ZM353.06 89.2188C353.153 87.5483 354.389 86.142 356.23 86.142C358.003 86.142 359.196 87.4375 359.213 89.2188H353.06ZM378.427 83.9091H375.146L372.129 93.6335H371.992L368.984 83.9091H365.694L370.356 97H373.765L378.427 83.9091ZM378.562 97H381.647V83.9091H378.562V97ZM380.113 82.0511C381.093 82.0511 381.894 81.3011 381.894 80.3807C381.894 79.4517 381.093 78.7017 380.113 78.7017C379.124 78.7017 378.323 79.4517 378.323 80.3807C378.323 81.3011 379.124 82.0511 380.113 82.0511ZM382.82 97H385.905V89.304C385.905 87.642 387.158 86.4659 388.854 86.4659C389.374 86.4659 390.021 86.5597 390.286 86.6449V83.8068C390.004 83.7557 389.518 83.7216 389.178 83.7216C387.678 83.7216 386.425 84.5739 385.947 86.0909H385.811V83.9091H382.82V97ZM397.575 83.9091H394.993V80.7727H391.908V83.9091H390.05V86.2955H391.908V93.5739C391.891 96.0369 393.68 97.2472 395.999 97.179C396.876 97.1534 397.482 96.983 397.814 96.8722L397.294 94.4602C397.124 94.5028 396.774 94.5795 396.391 94.5795C395.615 94.5795 394.993 94.3068 394.993 93.0625V86.2955H397.575V83.9091ZM406.499 91.4943C406.499 93.4886 405.076 94.4773 403.712 94.4773C402.229 94.4773 401.241 93.429 401.241 91.767V83.9091H398.156V92.2443C398.156 95.3892 399.945 97.1705 402.519 97.1705C404.479 97.1705 405.86 96.1392 406.457 94.6733H406.593V97H409.585V83.9091H406.499V91.4943ZM414.524 97.2642C416.578 97.2642 417.805 96.3011 418.368 95.2017H418.47V97H421.436V88.2386C421.436 84.7784 418.615 83.7386 416.118 83.7386C413.365 83.7386 411.251 84.9659 410.57 87.3523L413.45 87.7614C413.757 86.8665 414.626 86.0994 416.135 86.0994C417.567 86.0994 418.351 86.8324 418.351 88.1193V88.1705C418.351 89.0568 417.422 89.0994 415.112 89.3466C412.572 89.6193 410.143 90.3778 410.143 93.3267C410.143 95.9006 412.027 97.2642 414.524 97.2642ZM415.325 94.9972C414.038 94.9972 413.118 94.4091 413.118 93.2756C413.118 92.0909 414.149 91.5966 415.53 91.4006C416.339 91.2898 417.959 91.0852 418.359 90.7614V92.304C418.359 93.7614 417.183 94.9972 415.325 94.9972ZM425.624 79.5455H422.538V97H425.624V79.5455ZM428.697 97.1875C429.702 97.1875 430.563 96.3523 430.572 95.3125C430.563 94.2898 429.702 93.4545 428.697 93.4545C427.657 93.4545 426.813 94.2898 426.822 95.3125C426.813 96.3523 427.657 97.1875 428.697 97.1875Z"/><path fill="#F5F5F5" d="M139.766 52L119.47 3.60772H130.204L143.49 37.7169L156.805 3.60772H167.51L147.215 52H139.766ZM167.565 52V21.9675H176.569V52H167.565ZM172.082 15.7205C171.104 15.7205 170.205 15.4858 169.384 15.0166C168.582 14.5278 167.937 13.8727 167.448 13.0515C166.959 12.2303 166.715 11.3309 166.715 10.3533C166.715 9.37569 166.959 8.48605 167.448 7.6844C167.937 6.88275 168.582 6.2473 169.384 5.77804C170.205 5.28923 171.104 5.04482 172.082 5.04482C173.06 5.04482 173.949 5.28923 174.751 5.77804C175.553 6.2473 176.188 6.88275 176.657 7.6844C177.146 8.48605 177.391 9.37569 177.391 10.3533C177.391 11.3309 177.146 12.2303 176.657 13.0515C176.188 13.8727 175.553 14.5278 174.751 15.0166C173.949 15.4858 173.06 15.7205 172.082 15.7205ZM195.925 68.1308C191.878 68.1308 188.476 67.3878 185.719 65.9018C182.962 64.4353 180.958 62.265 179.707 59.3908L187.039 55.8127C187.86 57.2009 189.072 58.3057 190.675 59.1269C192.279 59.9481 194.019 60.3587 195.896 60.3587C197.597 60.3587 199.093 60.0165 200.383 59.3322C201.674 58.6674 202.681 57.7191 203.404 56.4873C204.128 55.275 204.489 53.8673 204.489 52.264V48.0406C203.16 49.5853 201.586 50.7877 199.767 51.6481C197.949 52.5084 195.994 52.9385 193.902 52.9385C191.184 52.9385 188.701 52.264 186.452 50.9148C184.223 49.5462 182.444 47.6594 181.114 45.2544C179.785 42.8495 179.12 40.0926 179.12 36.9837C179.12 33.9335 179.765 31.2158 181.056 28.8304C182.366 26.4254 184.145 24.5288 186.393 23.1406C188.662 21.7328 191.242 21.0289 194.136 21.0289C196.248 21.0289 198.203 21.4395 200.002 22.2607C201.801 23.0624 203.297 24.1867 204.489 25.6335V21.9675H213.493V52.8212C213.493 55.7736 212.848 58.4034 211.557 60.7106C210.287 63.0178 208.351 64.8264 205.75 66.1364C203.15 67.466 199.875 68.1308 195.925 68.1308ZM196.6 45.2837C198.184 45.2837 199.582 44.9318 200.794 44.2279C202.026 43.5045 202.984 42.5268 203.668 41.295C204.352 40.0437 204.695 38.6261 204.695 37.0424C204.695 35.4195 204.343 33.9824 203.639 32.7311C202.954 31.4797 202.006 30.4923 200.794 29.7689C199.582 29.0454 198.203 28.6837 196.659 28.6837C195.114 28.6837 193.735 29.0454 192.523 29.7689C191.311 30.4923 190.353 31.4895 189.649 32.7604C188.945 34.0118 188.593 35.4391 188.593 37.0424C188.593 38.6261 188.935 40.0437 189.62 41.295C190.304 42.5268 191.252 43.5045 192.465 44.2279C193.677 44.9318 195.055 45.2837 196.6 45.2837ZM218.365 52V21.9675H227.369V25.3109C228.523 24.0205 229.96 22.9842 231.681 22.2021C233.421 21.42 235.337 21.0289 237.429 21.0289C239.736 21.0289 241.76 21.5373 243.5 22.554C245.26 23.5512 246.638 24.9492 247.635 26.748C248.633 28.5273 249.131 30.6096 249.131 32.995V52H240.127V34.9014C240.127 32.7506 239.56 31.0789 238.426 29.8862C237.312 28.6739 235.777 28.0678 233.822 28.0678C232.492 28.0678 231.338 28.3416 230.361 28.889C229.403 29.4169 228.66 30.1502 228.132 31.0887C227.623 32.0076 227.369 33.0537 227.369 34.2268V52H218.365ZM267.861 52.9385C264.615 52.9385 261.702 52.2444 259.121 50.8562C256.56 49.4484 254.526 47.542 253.021 45.1371C251.515 42.7321 250.763 40.0144 250.763 36.9837C250.763 34.7548 251.183 32.6724 252.024 30.7367C252.884 28.801 254.077 27.1097 255.602 25.6629C257.127 24.1964 258.896 23.0624 260.91 22.2607C262.924 21.4395 265.104 21.0289 267.451 21.0289C270.579 21.0289 273.316 21.6839 275.663 22.994C278.028 24.2844 279.866 26.0832 281.176 28.3904C282.506 30.6976 283.171 33.3861 283.171 36.4558C283.171 36.71 283.161 36.9348 283.141 37.1304C283.141 37.3063 283.112 37.6485 283.053 38.1569H260.03C260.03 39.682 260.373 41.0115 261.057 42.1456C261.761 43.2796 262.738 44.1692 263.99 44.8145C265.241 45.4402 266.698 45.753 268.36 45.753C269.924 45.753 271.302 45.4499 272.495 44.8438C273.707 44.2377 274.871 43.2698 275.985 41.9403L282.467 45.1958C281.059 47.6203 279.065 49.5168 276.484 50.8855C273.903 52.2542 271.029 52.9385 267.861 52.9385ZM260.353 33.171H274.313C274.118 32.0174 273.698 31.0202 273.052 30.1795C272.427 29.3387 271.625 28.6935 270.647 28.2438C269.67 27.7941 268.565 27.5692 267.333 27.5692C266.023 27.5692 264.87 27.7941 263.872 28.2438C262.875 28.6935 262.074 29.3387 261.468 30.1795C260.861 31.0202 260.49 32.0174 260.353 33.171ZM295.643 52.9385C292.651 52.9385 290.324 51.9902 288.662 50.0936C287.001 48.1775 286.17 45.5086 286.17 42.0869V28.801H282.152V21.9675H286.17V10.7053H295.173V21.9675H301.772V28.801H295.173V41.4417C295.173 42.5757 295.398 43.436 295.848 44.0226C296.317 44.6092 296.972 44.9025 297.813 44.9025C298.752 44.9025 299.651 44.5896 300.511 43.9639L302.77 51.1788C301.753 51.7263 300.609 52.1564 299.338 52.4693C298.087 52.7821 296.855 52.9385 295.643 52.9385ZM314.842 52.9385C311.85 52.9385 309.523 51.9902 307.861 50.0936C306.199 48.1775 305.368 45.5086 305.368 42.0869V28.801H301.35V21.9675H305.368V10.7053H314.372V21.9675H320.971V28.801H314.372V41.4417C314.372 42.5757 314.597 43.436 315.047 44.0226C315.516 44.6092 316.171 44.9025 317.012 44.9025C317.95 44.9025 318.85 44.5896 319.71 43.9639L321.968 51.1788C320.952 51.7263 319.808 52.1564 318.537 52.4693C317.286 52.7821 316.054 52.9385 314.842 52.9385ZM338.461 52.9385C335.215 52.9385 332.302 52.2444 329.721 50.8562C327.159 49.4484 325.126 47.542 323.62 45.1371C322.115 42.7321 321.362 40.0144 321.362 36.9837C321.362 34.7548 321.782 32.6724 322.623 30.7367C323.484 28.801 324.676 27.1097 326.201 25.6629C327.726 24.1964 329.496 23.0624 331.51 22.2607C333.524 21.4395 335.704 21.0289 338.05 21.0289C341.179 21.0289 343.916 21.6839 346.262 22.994C348.628 24.2844 350.466 26.0832 351.776 28.3904C353.105 30.6976 353.77 33.3861 353.77 36.4558C353.77 36.71 353.76 36.9348 353.741 37.1304C353.741 37.3063 353.712 37.6485 353.653 38.1569H330.63C330.63 39.682 330.972 41.0115 331.656 42.1456C332.36 43.2796 333.338 44.1692 334.589 44.8145C335.841 45.4402 337.297 45.753 338.959 45.753C340.524 45.753 341.902 45.4499 343.095 44.8438C344.307 44.2377 345.47 43.2698 346.585 41.9403L353.066 45.1958C351.659 47.6203 349.664 49.5168 347.083 50.8855C344.502 52.2542 341.628 52.9385 338.461 52.9385ZM330.953 33.171H344.913C344.717 32.0174 344.297 31.0202 343.652 30.1795C343.026 29.3387 342.225 28.6935 341.247 28.2438C340.269 27.7941 339.165 27.5692 337.933 27.5692C336.623 27.5692 335.469 27.7941 334.472 28.2438C333.475 28.6935 332.673 29.3387 332.067 30.1795C331.461 31.0202 331.089 32.0174 330.953 33.171Z"/></svg>